<svg width="24" height="24" viewBox="0 0 24 24" fill="none" xmlns="http://www.w3.org/2000/svg">
<path d="M7.74291 19.9915C7.51917 19.9912 7.30121 19.9204 7.11999 19.7892C6.96379 19.6707 6.84098 19.5138 6.76353 19.3337C6.68608 19.1536 6.65664 18.9565 6.67809 18.7617L7.06675 14.4012L4.28223 11.1216C4.15644 10.9719 4.07126 10.7924 4.0349 10.6003C3.99854 10.4083 4.01221 10.2101 4.07459 10.0248C4.13209 9.84422 4.23538 9.68163 4.37441 9.55287C4.51343 9.4241 4.68345 9.33356 4.86789 9.29006L8.92486 8.33172L11.0545 4.60484C11.1492 4.43521 11.2874 4.29393 11.455 4.19558C11.6225 4.09723 11.8133 4.04538 12.0075 4.04538C12.2018 4.04538 12.3925 4.09723 12.5601 4.19558C12.7276 4.29393 12.8658 4.43521 12.9605 4.60484L15.0902 8.35834L19.1472 9.31668C19.3316 9.36018 19.5016 9.45072 19.6406 9.57949C19.7797 9.70825 19.883 9.87084 19.9404 10.0514C20.0028 10.2367 20.0165 10.4349 19.9801 10.627C19.9438 10.819 19.8586 10.9985 19.7328 11.1482L16.9643 14.4012L17.3529 18.7617C17.3714 18.9589 17.3379 19.1576 17.2557 19.3379C17.1735 19.5182 17.0455 19.6738 16.8844 19.7892C16.7321 19.8994 16.5534 19.9672 16.3663 19.9859C16.1793 20.0046 15.9907 19.9735 15.8196 19.8957L12.0022 18.1707L8.19013 19.8957C8.04976 19.9596 7.89716 19.9923 7.74291 19.9915ZM12.0288 5.08401L9.73945 9.03982C9.7033 9.10358 9.65438 9.15919 9.59575 9.20316C9.53711 9.24713 9.47003 9.27853 9.39871 9.29538L5.13942 10.3016C5.10747 10.3549 5.10215 10.3868 5.13942 10.4134L8.04106 13.8688C8.08599 13.9224 8.11993 13.9843 8.14094 14.0509C8.16195 14.1176 8.16962 14.1878 8.16351 14.2575L7.75356 18.8362C7.70564 18.9267 7.74291 18.9267 7.74291 18.9267L11.7786 17.1059C11.8472 17.075 11.9216 17.059 11.9969 17.059C12.0721 17.059 12.1465 17.075 12.2152 17.1059L16.2615 18.9267C16.2615 18.9267 16.3094 18.9267 16.3041 18.8575L15.8941 14.2787C15.888 14.2091 15.8957 14.1389 15.9167 14.0722C15.9377 14.0056 15.9716 13.9437 16.0166 13.8901L18.9235 10.4347C18.9296 10.4233 18.9328 10.4105 18.9328 10.3975C18.9328 10.3845 18.9296 10.3717 18.9235 10.3602L14.611 9.29538C14.5397 9.27853 14.4726 9.24713 14.414 9.20316C14.3553 9.15919 14.3064 9.10358 14.2703 9.03982L12.0288 5.08401Z" fill="#101820" stroke="black" stroke-width="0.2"/>
</svg>
